<svg width="174" height="174" viewBox="0 0 174 174" fill="none" xmlns="http://www.w3.org/2000/svg">
<path d="M79.6525 55.2891C82.9359 47.1867 92.243 43.2721 100.407 46.5596L107.808 49.5398C115.972 52.8273 119.94 62.0876 116.656 70.1899L116.321 71.0162C114.294 76.0199 109.838 79.6456 104.518 80.6267L92.2374 82.9168C88.6308 83.5915 85.2552 85.1556 82.4201 87.4658C79.585 89.7761 77.3812 92.7584 76.0108 96.1394L75.8713 96.4837C74.225 100.546 76.2021 105.16 80.2956 106.809C84.3892 108.457 89.0265 106.507 90.6728 102.444L90.803 102.123C91.5658 100.241 93.244 98.8873 95.226 98.5107L107.506 96.2206C118.166 94.2123 127.068 86.9839 131.123 76.9765L131.458 76.1502C138.034 59.9227 130.112 41.4344 113.761 34.8501L106.36 31.8699C90.0088 25.2856 71.4271 33.1011 64.851 49.3287C63.2046 53.3914 65.1817 58.0054 69.2753 59.6538C73.3688 61.3022 78.0061 59.3517 79.6525 55.2891ZM68.3897 136.188C70.8433 137.176 73.5883 137.156 76.0209 136.133C78.4535 135.11 80.3745 133.167 81.3613 130.732C82.348 128.297 82.3197 125.57 81.2826 123.149C80.2454 120.729 78.2844 118.814 75.8309 117.826C73.3774 116.838 70.6324 116.858 68.1998 117.881C65.7671 118.904 63.8461 120.847 62.8594 123.282C61.8726 125.717 61.9009 128.445 62.9381 130.865C63.9752 133.285 65.9362 135.2 68.3897 136.188Z" fill="#F95700" fill-opacity="0.1"/>
<path d="M40.0252 85.512C41.5338 81.7893 45.8947 80.0249 49.7499 81.5773L53.2447 82.9846C57.0999 84.537 59.0078 88.8259 57.4992 92.5485L57.3454 92.9282C56.4137 95.2272 54.3339 96.8798 51.8353 97.3089L46.0684 98.3109C44.3747 98.6062 42.7937 99.3127 41.4702 100.366C40.1468 101.419 39.1233 102.785 38.4937 104.338L38.4296 104.496C37.6732 106.363 38.6238 108.5 40.5568 109.278C42.4899 110.057 44.6628 109.178 45.4192 107.311L45.479 107.163C45.8295 106.299 46.613 105.682 47.5436 105.517L53.3106 104.515C58.3163 103.636 62.4717 100.341 64.335 95.7428L64.4888 95.3631C67.5103 87.9072 63.7012 79.3445 55.9799 76.2352L52.4851 74.8279C44.7637 71.7187 36.0571 75.2415 33.0356 82.6974C32.2792 84.564 33.2298 86.701 35.1628 87.4794C37.0959 88.2578 39.2688 87.3786 40.0252 85.512ZM35.0866 122.777C36.2452 123.244 37.5364 123.247 38.6763 122.785C39.8161 122.324 40.7111 121.437 41.1645 120.318C41.6179 119.199 41.5925 117.941 41.0938 116.82C40.5951 115.699 39.6641 114.807 38.5055 114.34C37.3469 113.874 36.0556 113.871 34.9158 114.332C33.776 114.793 32.8809 115.681 32.4275 116.8C31.9741 117.918 31.9996 119.177 32.4983 120.298C32.9969 121.419 33.928 122.31 35.0866 122.777Z" fill="#F95700" fill-opacity="0.1"/>
</svg>
