<svg width="109" height="137" viewBox="0 0 109 137" fill="none" xmlns="http://www.w3.org/2000/svg">
<path d="M26.7166 50.385C23.4397 42.2758 27.428 32.9946 35.6102 29.6883L43.0275 26.6911C51.2098 23.3847 60.5263 27.2896 63.8031 35.3987L64.1373 36.2257C66.1609 41.2337 65.4725 46.9367 62.3168 51.3385L55.0508 61.5165C52.9183 64.5072 51.5724 67.9772 51.1365 71.6085C50.7005 75.2397 51.1885 78.9159 52.5557 82.2999L52.6949 82.6445C54.338 86.7106 58.98 88.6562 63.0827 86.9984C67.1854 85.3405 69.1726 80.7161 67.5296 76.65L67.3996 76.3284C66.6384 74.4447 66.9065 72.3054 68.0742 70.6577L75.3401 60.4797C81.633 51.6302 83.0192 40.2471 78.9719 30.2312L78.6377 29.4042C72.0748 13.1629 53.4742 5.36684 37.0866 11.9889L29.6693 14.9861C13.2816 21.6082 5.31902 40.1381 11.8819 56.3794C13.525 60.4455 18.167 62.3911 22.2697 60.7333C26.3724 59.0754 28.3596 54.451 26.7166 50.385ZM74.9647 116.403C77.4237 115.409 79.3907 113.488 80.4332 111.062C81.4756 108.636 81.508 105.904 80.5232 103.467C79.5384 101.03 77.6172 99.0878 75.182 98.0671C72.7469 97.0465 69.9974 97.0313 67.5385 98.025C65.0795 99.0186 63.1124 100.94 62.07 103.366C61.0275 105.791 60.9951 108.523 61.9799 110.96C62.9647 113.397 64.886 115.34 67.3211 116.361C69.7562 117.381 72.5057 117.396 74.9647 116.403Z" fill="#F95700" fill-opacity="0.1"/>
<path d="M19.1823 99.6525C17.6767 95.9267 19.5941 91.6281 23.4579 90.0667L26.9605 88.6514C30.8243 87.09 35.1898 88.8499 36.6954 92.5757L36.8489 92.9557C37.7787 95.2566 37.4295 97.8902 35.9255 99.9345L32.4622 104.661C31.4458 106.05 30.7972 107.657 30.5761 109.334C30.3549 111.01 30.5682 112.704 31.1963 114.259L31.2603 114.417C32.0152 116.285 34.1903 117.162 36.1277 116.379C38.0651 115.596 39.0204 113.455 38.2655 111.586L38.2058 111.439C37.8561 110.573 37.9917 109.585 38.5483 108.82L42.0116 104.093C45.0111 99.9834 45.7137 94.7268 43.8542 90.1249L43.7006 89.745C40.6852 82.2827 31.9695 78.7692 24.2309 81.8963L20.7283 83.3117C12.9897 86.4388 9.16165 95.021 12.177 102.483C12.932 104.351 15.1071 105.228 17.0445 104.445C18.9819 103.663 19.9372 101.521 19.1823 99.6525ZM41.587 129.889C42.7482 129.42 43.6821 128.525 44.1832 127.402C44.6844 126.278 44.7117 125.018 44.2592 123.898C43.8068 122.779 42.9116 121.891 41.7705 121.431C40.6295 120.971 39.3361 120.976 38.175 121.446C37.0138 121.915 36.0799 122.81 35.5787 123.933C35.0776 125.057 35.0502 126.317 35.5027 127.437C35.9552 128.556 36.8504 129.444 37.9914 129.904C39.1324 130.364 40.4258 130.359 41.587 129.889Z" fill="#F95700" fill-opacity="0.1"/>
</svg>
